<?xml version="1.0" encoding="UTF-8"?>
<svg id="Layer_1" data-name="Layer 1" xmlns="http://www.w3.org/2000/svg" xmlns:xlink="http://www.w3.org/1999/xlink" viewBox="0 0 408.91 367.41">
  <defs>
    <style>
      .cls-1 {
        fill: #7b7c7f;
      }

      .cls-2 {
        fill: #ec262a;
      }

      .cls-3 {
        fill: url(#linear-gradient-2);
      }

      .cls-4 {
        fill: url(#linear-gradient);
      }

      .cls-5 {
        fill: #fff;
      }

      .cls-6 {
        fill: #6e6d70;
      }

      .cls-7 {
        fill: #8c8f93;
      }

      .cls-8 {
        fill: #403e3b;
      }

      .cls-9 {
        fill: #2b2929;
      }

      .cls-10 {
        fill: #5a5758;
      }

      .cls-11 {
        fill: #1a181a;
      }

      .cls-12 {
        fill: #bfbebe;
      }

      .cls-13 {
        fill: #090908;
      }

      .cls-14 {
        fill: #a2a2a7;
      }

      .cls-15 {
        fill: #dedee1;
      }
    </style>
    <linearGradient id="linear-gradient" x1="349.36" y1="336.83" x2="323.23" y2="337.13" gradientUnits="userSpaceOnUse">
      <stop offset="0" stop-color="#a0a2a6"/>
      <stop offset="1" stop-color="#848589"/>
    </linearGradient>
    <linearGradient id="linear-gradient-2" x1="85.59" y1="319.44" x2="58.77" y2="319.52" gradientUnits="userSpaceOnUse">
      <stop offset="0" stop-color="#86878c"/>
      <stop offset="1" stop-color="#a3a4a8"/>
    </linearGradient>
  </defs>
  <g id="Generative_Object" data-name="Generative Object">
    <g>
      <g>
        <path class="cls-5" d="M394.27,346.75c3.38-7.06,2.62-35.52-7.22-34.38-3.22.37-13.15,7.97-17.19,8.94h5.16c-7.48,3.26-14.63,7.63-22.01,11-37.27,17.05-38.94,10.73-60.52-20.63-7.83-11.39-15.2-23.7-22.01-35.76.41-.35.88-.93,1.38-1.38,12.38,12.35,32.18,58.02,47.11,63.95,6.5,2.59,11.09.9,17.19-1.38,8.76-3.27,49.51-28.73,53.64-28.2,7.75,1.01,12.14,40.46,2.41,43.67l2.06-5.85Z"/>
        <path class="cls-7" d="M292.49,311.68l-3.44,1.38c-7.24-11.51-14.89-22.8-22.01-34.38.97-.74,2.54-1.98,3.44-2.75,6.8,12.06,14.17,24.37,22.01,35.76Z"/>
        <g>
          <path class="cls-11" d="M275.99,270.42c4.14,8.94,10.56,16.54,15.82,24.76,5.65,8.83,21.98,39.86,32.67,40.57.74.05,7.51-1.13,8.25-1.38,14.22-4.77,39.25-25.74,52.95-28.88,24.55-5.64,30.85,43.29,13.07,53.64-3.46,2.01-7.89,2.13-11.35,4.13-21.03.96-48.12,9.56-68.08-1.38-12.02-6.58-32.7-43.05-41.26-56.39-5.1-7.94-9.32-16.56-15.13-24.07,1.14-.79,3.23-2.06,4.13-2.75,7.12,11.59,14.77,22.88,22.01,34.38,6.85,10.89,20.31,37.04,29.91,43.32,15.23,9.96,66.46,8.86,75.3-9.63l-2.06,5.85c9.73-3.2,5.34-42.66-2.41-43.67-4.13-.54-44.88,24.93-53.64,28.2-6.1,2.28-10.69,3.96-17.19,1.38-14.92-5.93-34.72-51.6-47.11-63.95.26-.23,2.78-2.72,4.13-4.13Z"/>
          <path class="cls-10" d="M402.18,319.25c1.37-.35,4.16,14.91,2.75,15.13l-2.75-15.13Z"/>
        </g>
        <g>
          <path class="cls-4" d="M292.49,311.68c21.57,31.36,23.25,37.68,60.52,20.63,10.24-2.08,20.26-7.55,28.88-13.41-2.15.11-4.85,1.52-6.88,2.41h-5.16c4.04-.97,13.97-8.57,17.19-8.94,9.84-1.14,10.6,27.33,7.22,34.38-8.84,18.49-60.07,19.59-75.3,9.63-9.61-6.28-23.06-32.43-29.91-43.32l3.44-1.38Z"/>
          <g>
            <path class="cls-11" d="M384.3,330.94c.67-.08,1.39.06,2.06,0,1.74.89-28.41,13.91-30.6,14.1-1.16.1-1.71.91-2.75-.69,8.44-1.45,24.01-12.51,31.29-13.41Z"/>
            <path class="cls-11" d="M384.99,337.13c.95-.08,2.59-.42,2.41,1.03-8.25,2.48-19.3,10.01-27.16,12.03-1.36.35-2.86,1.14-3.78-.34,6.25-1.94,23.29-12.3,28.54-12.72Z"/>
            <path class="cls-13" d="M382.92,324.75c1.17-.12,2.36-.06,1.38,1.38-4.83,1.74-9.12,4.8-13.75,6.88-1.04.47-15.61,7.2-15.47,4.47,6.72-1.34,22.39-12.16,27.85-12.72Z"/>
            <path class="cls-11" d="M388.43,342.63c.95.03,1.15.41,1.72,1.03-7.31,2.67-17.13,8.83-24.41,10.66-1.29.32-1.99,1.34-3.09-.34,4.68-1.78,22.05-11.45,25.79-11.35Z"/>
            <path class="cls-11" d="M353.01,332.31c7.38-3.37,14.53-7.74,22.01-11,2.03-.88,4.73-2.3,6.88-2.41-8.63,5.86-18.65,11.33-28.88,13.41Z"/>
          </g>
        </g>
      </g>
      <g>
        <path class="cls-5" d="M139.14,275.92c-12.27,15.03-32.56,63.24-52.61,66.02-10.88,1.51-22.92-5.49-32.67-9.63l2.41-.69-27.85-13.75,9.63,3.09c-9.43-3.89-17.85-15.94-23.38-1.38-2.77,7.3-3.45,21.87.69,28.54l.69,3.78c-8.63-4.16-4.79-40.4,2.41-42.29,3.13-.82,9.37,2.69,12.38,4.13,12.34,5.87,42.67,27.62,55.01,26.13,6.18-.74,13.78-9.37,17.54-14.1,12-15.12,21.3-35.55,33.01-51.23.16.11.23-.62,2.75,1.38Z"/>
        <g>
          <path class="cls-11" d="M136.39,274.55c-11.71,15.68-21.01,36.11-33.01,51.23-3.75,4.73-11.36,13.35-17.54,14.1-12.34,1.48-42.67-20.26-55.01-26.13-3.01-1.43-9.25-4.95-12.38-4.13-7.2,1.9-11.04,38.13-2.41,42.29l-.69-3.78c11.02,17.75,72.24,21.82,83.9-1.03l43.32-68.42c1.35,1.23,3.33,1.22,2.75,3.44-5.14,7.54-9.48,15.76-14.44,23.38-8.65,13.28-20.26,35.19-29.57,46.42-3.62,4.36-8.4,7.57-13.07,10.66-21.51,10.52-47.6.72-68.77,0-29.88-2.45-23.38-65.53,5.85-56.39,14.64,4.58,34.96,22.19,50.2,27.51,1.66.58,7.54,2.17,8.94,2.06,10.4-.79,27.07-31.03,32.67-39.89,5.11-8.09,10.68-15.99,15.82-24.07,3.98.25,3.22,2.6,3.44,2.75Z"/>
          <path class="cls-10" d="M6.76,319.25l-2.75,15.82c-1.23-1.74,1.58-16.36,2.75-15.82Z"/>
        </g>
        <g>
          <path class="cls-3" d="M142.58,278.67l-43.32,68.42c-11.66,22.85-72.87,18.78-83.9,1.03-4.14-6.67-3.46-21.24-.69-28.54,5.53-14.57,13.95-2.52,23.38,1.38l-9.63-3.09c-1.41.39-.65,1.01,0,1.72,3.23,3.54,20.16,10.48,25.44,12.72,9.75,4.14,21.79,11.14,32.67,9.63,20.05-2.78,40.34-50.99,52.61-66.02,1.34,1.06,2,1.44,3.44,2.75Z"/>
          <g>
            <path class="cls-11" d="M23.27,330.94l33.35,13.41c.11,2.39-7.43-.63-8.6-1.03-7.81-2.7-17.57-8.11-24.76-12.38Z"/>
            <path class="cls-11" d="M22.58,336.44l29.91,13.41c.18,1.99-13.71-4.01-14.79-4.47-4.4-1.86-12.71-5.25-15.13-8.94Z"/>
            <path class="cls-11" d="M25.33,324.75c9.56,4.06,19.85,7.6,28.54,13.41-5.08-.68-10.48-3.38-15.13-5.5-4.19-1.92-10.43-4.36-13.41-7.91Z"/>
            <path class="cls-11" d="M20.51,342.63l25.79,11.35c-.72,1.22-1.96.61-3.09.34-6.76-1.58-16.22-8.38-23.38-10.32l.69-1.38Z"/>
            <path class="cls-11" d="M53.87,332.31c-5.29-2.24-22.21-9.18-25.44-12.72-.65-.71-1.41-1.32,0-1.72l27.85,13.75-2.41.69Z"/>
          </g>
        </g>
      </g>
    </g>
    <g>
      <g>
        <g>
          <path class="cls-7" d="M147.39,113.63c-.08.06-.61.82-1.38,1.38-1.73-2.1-12.34-17.12-12.38-18.22-.05-1.26,1.83-2.51,2.75-3.09,2.62,6.86,10.21,13.22,11,19.94Z"/>
          <g>
            <path class="cls-11" d="M132.26,66.87c1.74,2.78,10.61,14.98,11,16.16.97,2.95-.35,5.96,0,6.88,2.23,5.92,9.17,12.74,11.69,18.91-.98.54-2.66,2.5-4.13,3.44-1.1-3.58-10.81-20.09-13.41-19.94-.48.03-.96,1.33-1.03,1.38-.92.58-2.8,1.84-2.75,3.09.04,1.1,10.65,16.12,12.38,18.22-1.15.84-3.35,2.13-4.13,2.75-2.2-1.96-10.83-18.16-12.03-18.57-1.56-.53-3.32,1.25-4.81.69-6.72-2.51-9.12-11.45-12.72-17.19-11.51-18.35-22.41-37.31-34.38-55.36-4.17-6.29-14.36-11.04-7.22-19.6.96-1.15,11.58-7.37,13.07-7.56,10.49-1.38,9.21,6.45,12.72,12.03,11.58,18.4,24.22,36.26,35.76,54.67Z"/>
            <path class="cls-11" d="M77.94,8.41c2.09-.37,1.82.44,2.75,1.72,13.56,18.62,31.88,46.76,43.32,66.71.93,1.62,6.8,12.99,6.88,13.75.13,1.34-1.5,2.75-2.06,3.78-.33.12-1.13,2.3-3.78,1.38-2.19-.76-6.79-12-8.6-14.79-12.17-18.78-23.94-39.68-36.45-57.77-2.96-4.29-9.67-5.9-6.88-12.38.59-1.38,3.96-1.83,4.81-2.41Z"/>
            <path class="cls-8" d="M83.44,5.66l50.89,78.05,2.75.34c2.01,4.25-4.48,8.9-8.25,10.32.56-1.03,2.2-2.44,2.06-3.78-.08-.77-5.95-12.13-6.88-13.75-11.45-19.94-29.76-48.08-43.32-66.71-.93-1.28-.66-2.09-2.75-1.72,2.6-1.76,2.19-1.88,5.5-2.75Z"/>
            <path class="cls-5" d="M137.08,84.06l-2.75-.34L83.44,5.66c8.34-2.18,5.38,2.79,8.94,8.6,14.42,23.54,30.73,45.97,44.7,69.8Z"/>
            <path class="cls-5" d="M150.83,112.25c-.98.63-3.07,1.12-3.44,1.38-.79-6.73-8.38-13.09-11-19.94.07-.05.55-1.35,1.03-1.38,2.6-.15,12.31,16.37,13.41,19.94Z"/>
          </g>
        </g>
        <g>
          <path class="cls-11" d="M297.31,82c-2.78,4.42-8.43,16.6-12.72,17.88-1.87.56-3.65-.98-4.81-.69-1.98.49-9.91,16.56-12.72,18.57-2.42-2.04-2.55-3.29-2.75-3.44.92-3.11,11.63-16.6,11.69-18.22.02-.42-1.71-1.41-2.06-1.72-.77-.67-1.78-1.05-2.06-2.06,1.47-.55.83.54,2.41.69.47.04.24-1.49.69-1.38,1.03.27,2.9,2.17,4.47,2.75,8.69,3.24,6.98-3.58,11-9.97,13.13-20.87,26.2-42.1,39.89-62.58,1.2-1.79,5.03-3.75,5.5-4.81,2.62-6-1.77-7.83-6.19-9.97-.84-.41-1.94-1.14-2.75-1.38-9.67-2.78-6.12,2.14-9.63,7.91-14.5,23.83-31.07,46.53-45.39,70.49-6.59,2.39.64,4.41-1.38,8.25-3.05,1.79-9.21,15.39-12.38,18.57-1.47-.91-2.83-2.42-3.44-2.75,2.35-5.82,8.72-12.07,11-17.54.57-1.36-.4-5.27.69-8.25.49-1.34,8.57-11.95,10.32-14.79,11.51-18.66,24.07-36.79,35.76-55.36,3.67-5.83,2.77-13.33,12.72-12.03,3.21.42,14.88,7.74,15.47,11.35.99,5.99-8.2,13.87-11.69,19.26-10.91,16.82-20.97,34.27-31.63,51.23Z"/>
          <path class="cls-11" d="M279.43,94.37l-1.38-3.78c16.23-28.39,35.63-54.95,51.58-83.55,4.42,2.14,8.81,3.97,6.19,9.97-.47,1.07-4.3,3.02-5.5,4.81-13.69,20.48-26.75,41.71-39.89,62.58-4.02,6.39-2.31,13.21-11,9.97Z"/>
          <path class="cls-8" d="M329.63,7.04c-15.95,28.61-35.34,55.17-51.58,83.55l1.38,3.78c-1.57-.58-3.44-2.48-4.47-2.75-.45-.12-.22,1.42-.69,1.38-1.58-.15-.94-1.24-2.41-.69-.34.13-1.16-.13-1.38,0,2.02-3.84-5.22-5.86,1.38-8.25.79-.29.61,2.39,2.06,1.03l47.45-76.33,5.5-3.09c.81.23,1.91.97,2.75,1.38Z"/>
          <path class="cls-5" d="M326.88,5.66l-5.5,3.09-47.45,76.33c-1.45,1.36-1.28-1.32-2.06-1.03,14.32-23.96,30.89-46.65,45.39-70.49,3.51-5.77-.04-10.68,9.63-7.91Z"/>
          <path class="cls-7" d="M264.3,114.32c-.15-.11-1.3.09-3.44-1.38l13.07-18.57c.35.31,2.08,1.3,2.06,1.72-.06,1.62-10.77,15.11-11.69,18.22Z"/>
          <path class="cls-5" d="M271.86,92.31c.29,1.02,1.3,1.39,2.06,2.06l-13.07,18.57c-.99-.68-2.31-1.79-2.75-2.06,3.17-3.18,9.33-16.78,12.38-18.57.22-.13,1.03.13,1.38,0Z"/>
        </g>
      </g>
      <g>
        <path class="cls-11" d="M254.67,108.13c.61.33,1.97,1.84,3.44,2.75.45.28,1.76,1.38,2.75,2.06,2.14,1.47,3.29,1.26,3.44,1.38.2.15.33,1.4,2.75,3.44,47.34,39.97,52.1,107.44,8.94,152.67-1.34,1.41-3.87,3.89-4.13,4.13-.49.44-.96,1.02-1.38,1.38-.9.77-2.47,2.01-3.44,2.75-.9.69-2.98,1.96-4.13,2.75-34.73,23.93-81.56,25.06-115.87,0l-1.72.69c.58-2.21-1.4-2.21-2.75-3.44-1.44-1.31-2.1-1.69-3.44-2.75-2.52-2-2.59-1.26-2.75-1.38-.22-.15.54-2.5-3.44-2.75l.69-1.03c-43.66-42.85-39.02-114.92,8.25-153.01.77-.62,2.98-1.92,4.13-2.75.76-.56,1.3-1.32,1.38-1.38.37-.26,2.46-.75,3.44-1.38,1.47-.94,3.15-2.9,4.13-3.44,32.87-18.15,65.22-16.92,98,0,.76.39,1.28-.93,1.72-.69Z"/>
        <path class="cls-5" d="M197.25,103.31c123.57-8.1,135.02,179.24,16.5,188.43-128.78,9.99-135.39-180.64-16.5-188.43Z"/>
        <g>
          <path class="cls-9" d="M212.04,287.61c-4.49,2.53-11,3.07-15.82.69l3.09-1.38,12.72.69Z"/>
          <g>
            <path class="cls-11" d="M164.93,170.02c9.97-.38,19.5,7.38,22.35,16.85-5.56-1.09-10.42-5.12-16.16-5.85-9.62-1.21-18.61,1.59-27.51,4.81,3.52-7.48,12.75-15.49,21.32-15.82Z"/>
            <path class="cls-11" d="M241.95,170.02c9.93-.41,18.83,6.73,23.73,14.79-14.71-3.61-30.21-7.97-42.98,3.09.97-8.9,10.22-17.51,19.26-17.88Z"/>
            <path class="cls-10" d="M220.29,282.11c6.31-3.27,16.07-4.25,22.01-7.56,1.14-.63,25.21-19.61,17.19-5.16-4.06,7.33-12.59,5.77-15.47,7.22-.71.35-3.12,4.45-4.81,5.5-3.24,2-18.86,6.81-18.91,0Z"/>
            <path class="cls-8" d="M186.25,260.79c16.06-2.84,24.1,16.25,4.13,13.75-10.07-1.26-14.59-11.91-4.13-13.75Z"/>
            <path class="cls-10" d="M166.65,274.55c6.59,3.67,15.55,4.12,22.01,8.25-.72,4.63-11.63,2.48-14.79,1.38-4.71-1.65-6.82-6.53-8.94-7.56-3.09-1.51-12.49-1.09-15.47-7.91-5.59-12.79,16.12,5.25,17.19,5.85Z"/>
            <path class="cls-10" d="M158.4,252.54c3.04.47-.87.84-.69,1.03,4.85,4.93,16.15,5.68,19.26,12.03-1.59,14.79-32.29-7.4-18.57-13.07Z"/>
            <path class="cls-10" d="M231.98,266.3c.64-5.41,3.9-3.34,6.53-4.81,4.7-2.64,8.94-5.68,14.1-7.56,7.05,9.07-18.21,23.31-20.63,12.38Z"/>
            <path class="cls-15" d="M214.44,150.08c5.87-.57,11.1,3.52,13.41,8.6-.18,2.36-6.82-1.7-7.22-1.72-.23-.01-.65,1.99-1.38,2.06-3.48.34-3.88-2.08-4.13-2.06-.28.01-1.1,1.36-1.38,1.38-16.35.72-2.51,13.24,7.56,9.63,2.21-.79,3.25-3.43,5.5-4.13-13.04,21.96-33.64-11.68-12.38-13.75Z"/>
            <path class="cls-12" d="M142.92,138.39c12.63-2.33,4.78,18.6-2.75,21.32-1.25-2.15,1.95-2.48,2.41-4.47,1.57-6.83-4.62-9.46-9.28-4.47-2.46-1.29,6.47-11.79,9.63-12.38Z"/>
            <path class="cls-10" d="M229.23,266.3c.4,8.47-25.69,13.14-22.01,1.38l2.41.69c5.89-1.46,14.96-5.59,19.6-2.06Z"/>
            <path class="cls-10" d="M215.47,281.42c1.78,4.06-.83,4.72-3.44,6.19l-12.72-.69-3.09,1.38c-3.35-1.65-4.61-2.94-2.75-6.88,6.43-1.41,15.93-1.14,22.01,0Z"/>
            <path class="cls-12" d="M275.99,232.6c-1.23,10.16-16.58,16.44-16.5,4.81,4.03-3.71,11.4-8.2,16.5-4.81Z"/>
            <path class="cls-15" d="M198.97,154.89c7.67,11.37-9.13,21.52-17.19,12.03,7.17,3.1,18.26,2.23,17.88-7.56-5.77-1.53-17.41-1.95-20.29,3.09-1.58-2.2-.04-5.12,1.03-6.88l5.16-1.38,13.41.69Z"/>
            <path class="cls-12" d="M135.01,181.02c-1.56,4.9-3.74,8.48-9.28,9.63,4.76-2.46,9.6-11.33,2.06-13.07-10.94-2.52-6.43,7.83-8.94,13.75-2.92-6.94-1.15-11.23,3.09-17.88,6.47-1.47,7.65-1.63,11.35,3.44.18.25,1.61-2.18,1.72,4.13Z"/>
            <path class="cls-15" d="M269.8,141.82c2.76,2.17,4.31,5.52,6.88,7.91-.32,2.39-7.31-3.88-10.32.69-2.39,3.63,3.05,7.86,1.72,8.6-3.42-.88-5.66-3.99-7.22-6.88-1.62-6.16,2.93-10.48,8.94-10.32Z"/>
            <path class="cls-12" d="M246.76,232.6c6.01-1.27,10,.98,10.66,7.22-5.52.94-10.2.35-15.47,2.41l1.03-2.41c-.18-.31-3.43,1.41-3.44-1.38-.03-.95,5.98-5.58,7.22-5.85Z"/>
            <path class="cls-11" d="M252.61,253.92c-5.16,1.89-9.39,4.92-14.1,7.56-2.63,1.48-5.89-.6-6.53,4.81-2.15-9.71,15.4-19.11,20.63-12.38Z"/>
            <path class="cls-15" d="M286.99,174.15c.74.87,2.98,3.45,3.44,4.13-.94,1.21-.59,2.12-.69,3.44-3.13-4.14-10.01-6.82-11.69-.34-.73,2.79,1.43,5.19.34,7.22-2.52-1.22-3.48-3.82-4.47-6.19-.34-6.42,7.5-12.47,13.07-8.25Z"/>
            <path class="cls-15" d="M275.3,214.72l3.09-8.25c2.23-.68,4.78-3.54,6.88-4.13,1.57-.44,5.03,1.35,5.16-.69.8,2.55,2.6,6.22.34,8.25-5.53-6.96-15.8,2.42-11.69,10.32-2.56-.74-3.23-3.29-3.78-5.5Z"/>
            <path class="cls-15" d="M176.96,128.76c.21.31,2.21,2.12,1.03,2.75-6.33,1.56-13.33-2.25-18.22,3.09,1.62,11.16,17.28,6.47,18.91-2.41.07,16.93-29.22,10.93-17.54-2.75l15.82-.69Z"/>
            <path class="cls-12" d="M132.95,216.09c-.72,1.53-1.04,3.11-3.09,3.44,4.29-9.05-5.26-16.83-12.38-10.32-.55-.43-.46-4.53-.34-5.5,3.35-5.53,14.85,1.61,15.82,5.16.73,2.69-2.19,4.45,0,7.22Z"/>
            <path class="cls-8" d="M289.4,214.03c2.11-.9,3.09,4.82,3.09,5.85,0,.24-1.96.62-2.06,1.38-.04.27,1.44,4.09.69,5.5-.24.44-6.27-.37-9.28,3.09l-.69,3.44c-2.99-7.42,3.74-11.04,7.22-15.47.12-.15.03-3.35,1.03-3.78Z"/>
            <path class="cls-6" d="M290.43,201.65c-.13,2.04-3.58.24-5.16.69-2.09.59-4.65,3.44-6.88,4.13l-3.09,8.25c-1.21-4.83-.81-7.24.69-11.69l10.32-6.88c3.05,1.17,3.2,2.56,4.13,5.5Z"/>
            <path class="cls-14" d="M256.05,211.28c1.46-2.58-3.28-5.9-5.5-6.19,7.84-4.82,16.21-1.39,15.47,8.25-4.77-5.95-3.77,1.13-9.97-2.06Z"/>
            <path class="cls-11" d="M176.96,265.61c-3.1-6.35-14.41-7.11-19.26-12.03-.18-.19,3.72-.56.69-1.03,7.35-3.03,19.45,4.84,18.57,13.07Z"/>
            <path class="cls-6" d="M134.33,206.47c.5,3.4.12,6.46-1.38,9.63-2.19-2.77.73-4.53,0-7.22-.97-3.55-12.46-10.68-15.82-5.16.3-2.54,2.99-7.25,5.5-8.25,1.31,2.75,5.53,3.05,7.91,5.5,1.74,1.79,1.66,4.72,3.78,5.5Z"/>
            <path class="cls-11" d="M229.23,266.3c-4.63-3.52-13.71.6-19.6,2.06l-2.41-.69c2.61-8.32,21.65-8.86,22.01-1.38Z"/>
            <path class="cls-8" d="M119.54,213.34c1.49,7.48,10.57,9.7,8.25,18.57,0-6.19-9.6-5.33-9.97-5.85-.4-.56-.84-13.1,1.72-12.72Z"/>
            <path class="cls-9" d="M188.65,282.8c-6.46-4.13-15.41-4.58-22.01-8.25,5.53-4.3,23.14.99,22.01,8.25Z"/>
            <path class="cls-12" d="M149.46,235.35c.31,2.21.07,4.56-1.72,6.19,1.21-4.35-6.75-5.31-10.32-5.5-2.7,1.77,1.62,3.07.69,5.5-2.03-2.63-3.74-4.9-4.47-8.25,1.3-7,11.75.98,15.82,2.06Z"/>
            <path class="cls-14" d="M149.11,201.65c2.25-.33,12.56,3.45,12.03,5.85-4.28,2.4-11.11-2.23-17.54,1.72-2.93-.67,3.1-7.21,5.5-7.56Z"/>
            <path class="cls-15" d="M209.63,106.06c16.2-2.99,18.81,16.86,0,11.69-3.04-2.99,10.55,1.63,12.03-3.78,1.77-6.47-16.34-5.95-16.5-2.75-.23,1.08,6.29,6.68,1.72,4.47-5.13-2.48-2.79-8.61,2.75-9.63Z"/>
            <path class="cls-9" d="M242.29,274.55c-5.93,3.31-15.7,4.29-22.01,7.56-.05-6.45,16.99-12.06,22.01-7.56Z"/>
            <path class="cls-6" d="M274.61,227.1c1.23,1.63,1.62,3.51,1.38,5.5-5.1-3.38-12.47,1.11-16.5,4.81.02-2.81,1.68-5.47,3.44-7.56,4.02-1.56,7.07-4.95,11.69-2.75Z"/>
            <path class="cls-6" d="M136.39,173.46c.2,3.14-.47,4.71-1.38,7.56-.11-6.31-1.54-3.87-1.72-4.13-3.69-5.07-4.88-4.91-11.35-3.44,1.14-1.78,1.57-3.42,3.44-4.81,4.57-1.58,8.92.04,11,4.81Z"/>
            <path class="cls-6" d="M153.58,252.54c.39,1.07,1.86,5.21-.34,5.5-3.95-3.92-13.8-3.17-13.41-8.94h5.85l7.91,3.44Z"/>
            <path class="cls-15" d="M193.12,105.38c3.36-.18,9.64,3.47,8.6,7.22-1.45,5.2-16.3,8.88-16.85,1.03,1.42,5.09,14.99,2.38,15.47-1.03.71-4.99-11.33-3.74-14.79-2.41.05-1.86,6.75-4.77,7.56-4.81Z"/>
            <path class="cls-6" d="M282.87,168.64c3.34,2.42,2.69,3.8,4.13,5.5-5.56-4.22-13.41,1.83-13.07,8.25-.98-2.34-2.1-4.99-2.06-7.56,2.3-.48,3.3-4.77,5.16-5.5,1.32-.52,2.6,2.41,2.75-1.38l3.09.69Z"/>
            <path class="cls-6" d="M141.89,226.41c2.98,1.29,7.14,5.85,7.56,8.94-4.07-1.09-14.52-9.07-15.82-2.06-.53-2.4-.92-4,.69-6.19l7.56-.69Z"/>
            <path class="cls-10" d="M138.11,254.6c1.3.05,10.91,9.62,8.94,12.38-2.96,4.15-14.99-12.63-8.94-12.38Z"/>
            <path class="cls-12" d="M164.24,150.76c3.83-.76,9.25.42,10.66,4.47-3.04-1.9-16.57,4.21-16.5,0,1.28-1.35,4.11-4.13,5.85-4.47Z"/>
            <path class="cls-14" d="M155.99,232.6c4.04-1.25,11.2.67,12.03,5.85l-14.79-.34c-2.35-1.03,2.21-5.33,2.75-5.5Z"/>
            <path class="cls-12" d="M211,124.63c5.11-.9,13.4,1.36,14.1,7.22-7.12-4.29-11.94-5.19-19.6-1.72-2.66-1.24,4.37-5.3,5.5-5.5Z"/>
            <path class="cls-1" d="M269.8,141.82c-6.01-.16-10.56,4.16-8.94,10.32-5.66-10.47-2.13-19.04,8.94-10.32Z"/>
            <path class="cls-12" d="M233.01,126.01c4.83-1.01,13.49.78,14.79,6.53-.95,1.47-4.86-2.21-5.85-2.41-4.88-.99-7.69.38-12.38-.69-1.29-1.4,3.19-3.39,3.44-3.44Z"/>
            <path class="cls-9" d="M215.47,281.42c-6.08-1.14-15.58-1.41-22.01,0,2.83-5.98,19.28-6.21,22.01,0Z"/>
            <path class="cls-10" d="M270.14,255.98c5.88-.26-3.17,13.06-7.56,11-2.12-2.89,6.06-10.94,7.56-11Z"/>
            <path class="cls-6" d="M269.8,249.1c.27,4.96-2.21,1.92-2.41,2.06-1.91,1.39-1.13,3.4-5.5,2.06l-6.19,5.5c-.56-1.59-1.22-3.06-1.03-4.81,4.52-1.17,10.56-7.84,15.13-4.81Z"/>
            <path class="cls-12" d="M237.14,150.76c4.16-.8,10.32.79,12.03,5.16-5.88-1.5-11.26-1.91-16.85.34-1.61-2.05,3.62-5.27,4.81-5.5Z"/>
            <path class="cls-12" d="M198.97,154.89l-13.41-.69-5.16,1.38c3.9-6.37,14.41-6.85,18.57-.69Z"/>
            <path class="cls-10" d="M281.49,242.23c.03,4.15-5.31,10.78-9.97,10.32-.72-.4-.14-1.52-.34-2.06,1.54-3.28,6.18-7.84,10.32-8.25Z"/>
            <path class="cls-10" d="M137.77,250.48c-.21.85.04,1.42-1.03,2.06-3.9-.36-9.26-6.49-9.28-10.32,4.73.79,7.52,4.62,10.32,8.25Z"/>
            <path class="cls-9" d="M269.8,249.1c-4.57-3.02-10.61,3.65-15.13,4.81.73-6.71,14.76-11.69,15.13-4.81Z"/>
            <path class="cls-11" d="M137.77,250.48c-2.79-3.63-5.58-7.46-10.32-8.25-.07-9.33,11.78,2.2,10.32,8.25Z"/>
            <path class="cls-9" d="M281.49,242.23c-4.13.41-8.77,4.98-10.32,8.25-2.03-5.26,10.24-17.77,10.32-8.25Z"/>
            <path class="cls-12" d="M289.74,181.71c.1-1.31-.26-2.23.69-3.44.07.1,1.14-.23,2.06,1.03,3.81,5.25-1.97,8.83-2.41,13.41-1.35-3.66-.63-7.29-.34-11Z"/>
            <path class="cls-12" d="M176.96,128.76l-15.82.69c3.44-4.02,12.67-5.42,15.82-.69Z"/>
            <path class="cls-9" d="M153.58,252.54l-7.91-3.44h-5.85c.48-7.04,11.62-2.43,13.75,3.44Z"/>
            <path class="cls-12" d="M245.39,120.51l12.03,11.35c-1.66,2.56-14.74-7.85-12.03-11.35Z"/>
            <path class="cls-9" d="M282.87,168.64l-3.09-.69c-.16,3.79-1.43.86-2.75,1.38-1.86.73-2.85,5.03-5.16,5.5.12-8.3,3.96-11.28,11-6.19Z"/>
            <path class="cls-12" d="M198.28,128.07c.31.33,2.34,1.1,1.72,2.06-6.58-2.51-11.58-2.61-17.88.69-1.26-1.91.38-2,1.03-2.75,5.37-1.96,9.78-2.97,15.13,0Z"/>
            <path class="cls-11" d="M134.33,206.47c-2.13-.78-2.05-3.71-3.78-5.5-2.37-2.45-6.59-2.76-7.91-5.5,6.23-2.49,10.95,5.95,11.69,11Z"/>
            <path class="cls-11" d="M286.3,196.15l-10.32,6.88c1.62-4.83,4.56-9.09,10.32-6.88Z"/>
            <path class="cls-15" d="M161.49,122.57c3.03,1.43-10.12,12.64-13.41,9.97l13.41-9.97Z"/>
            <path class="cls-9" d="M136.39,173.46c-2.08-4.78-6.43-6.4-11-4.81,6.48-4.83,10.47-3.57,11,4.81Z"/>
            <path class="cls-12" d="M226.13,110.88c3.35,5.13,7.08,6.19,12.72,7.91-4.05,1.41-14.68-3.23-12.72-7.91Z"/>
            <path class="cls-12" d="M180.75,110.88c2.22,5.27-8.69,9.54-12.72,7.91,4.64-1.94,11.16-1.82,12.72-7.91Z"/>
            <path class="cls-12" d="M198.28,128.07c-5.35-2.97-9.76-1.96-15.13,0,4.08-4.7,10.87-4.54,15.13,0Z"/>
            <path class="cls-12" d="M277.71,144.57c.51-.3,5.66,9.11,4.13,9.63-1.12-1.13-5.94-8.58-4.13-9.63Z"/>
            <path class="cls-9" d="M274.61,227.1c-4.62-2.2-7.67,1.19-11.69,2.75,2.63-3.13,8.4-7.13,11.69-2.75Z"/>
            <path class="cls-15" d="M131.23,144.57l-4.13,8.25c-1.1-2.91,2.54-6.13,4.13-8.25Z"/>
            <path class="cls-8" d="M141.89,226.41l-7.56.69c2.46-3.34,4.46-2.04,7.56-.69Z"/>
            <path class="cls-15" d="M121.6,161.77c.65,1.69-.15,4.88-1.38,6.19-.87-1.86,0-4.69,1.38-6.19Z"/>
            <g>
              <path class="cls-11" d="M250.55,205.09c2.22.29,6.96,3.61,5.5,6.19-4.57-2.35-5.46-5.94-13.07-3.78,2.15-1.96,4.71-2.78,7.56-2.41Z"/>
              <g>
                <path class="cls-11" d="M164.93,207.15c1.49-.22,3.27.15,4.81,0l1.03,1.03-4.81,3.44c19.73,8.41,42.58,9.45,63.61,5.16,3.32-.68,25.58-10.1,25.1-3.78-9.97,11.58-14.85,28-27.16,37.48-27.17,20.91-49.36,1.02-62.92-23.04-2.17-3.85-4.35-13.91-8.25-13.07,1.18-2.96,5.47-6.76,8.6-7.22Z"/>
                <path class="cls-5" d="M165.62,215.41c25.5,10.53,54.86,8.35,80.8.34-19.95,20.06-62.73,23.23-80.8-.34Z"/>
                <path class="cls-2" d="M200,239.48c7.87-.78,19.69-.16,25.1,6.53-12.07,9.35-28.49,9.19-40.57,0,3.96-3.78,10.07-6,15.47-6.53Z"/>
              </g>
            </g>
          </g>
        </g>
      </g>
    </g>
  </g>
</svg>