<?xml version="1.0" encoding="UTF-8"?>
<svg id="Layer_1" data-name="Layer 1" xmlns="http://www.w3.org/2000/svg" xmlns:xlink="http://www.w3.org/1999/xlink" viewBox="0 0 423.07 303.57">
  <defs>
    <style>
      .cls-1 {
        fill: #7b7c7f;
      }

      .cls-2 {
        fill: #ec262a;
      }

      .cls-3 {
        fill: url(#linear-gradient-2);
      }

      .cls-4 {
        fill: url(#linear-gradient);
      }

      .cls-5 {
        fill: #fff;
      }

      .cls-6 {
        fill: #6e6d70;
      }

      .cls-7 {
        fill: #8c8f93;
      }

      .cls-8 {
        fill: #403e3b;
      }

      .cls-9 {
        fill: #2b2929;
      }

      .cls-10 {
        fill: #5a5758;
      }

      .cls-11 {
        fill: #1a181a;
      }

      .cls-12 {
        fill: #bfbebe;
      }

      .cls-13 {
        fill: #090908;
      }

      .cls-14 {
        fill: #a2a2a7;
      }

      .cls-15 {
        fill: #dedee1;
      }
    </style>
    <linearGradient id="linear-gradient" x1="363.19" y1="274.81" x2="337.06" y2="275.11" gradientTransform="translate(-44.63 70.43) rotate(-10.94)" gradientUnits="userSpaceOnUse">
      <stop offset="0" stop-color="#a0a2a6"/>
      <stop offset="1" stop-color="#848589"/>
    </linearGradient>
    <linearGradient id="linear-gradient-2" x1="84.84" y1="255.33" x2="58.02" y2="255.41" gradientTransform="translate(45 -9.83) rotate(9.39)" gradientUnits="userSpaceOnUse">
      <stop offset="0" stop-color="#86878c"/>
      <stop offset="1" stop-color="#a3a4a8"/>
    </linearGradient>
  </defs>
  <g id="Generative_Object" data-name="Generative Object">
    <g>
      <g>
        <path class="cls-5" d="M410.09,272.56c1.98-7.57-4.16-35.37-13.61-32.39-3.09.98-11.4,10.32-15.18,12.04l5.06-.98c-6.72,4.62-12.92,10.27-19.52,14.98-33.36,23.81-36.2,17.93-63.33-8.77-9.85-9.7-19.42-20.39-28.39-30.93.34-.43.69-1.08,1.09-1.61,14.5,9.78,42.61,50.86,58.39,53.85,6.87,1.3,11.06-1.22,16.62-4.61,7.98-4.87,43.16-37.6,47.32-37.86,7.8-.48,19.59,37.43,10.65,42.42l.92-6.13Z"/>
        <path class="cls-7" d="M303.5,257.43l-3.11,2c-9.29-9.92-18.95-19.56-28.13-29.58.81-.91,2.12-2.43,2.85-3.35,8.97,10.55,18.54,21.24,28.39,30.93Z"/>
        <g>
          <path class="cls-11" d="M279.47,220.05c5.76,8,13.51,14.24,20.23,21.31,7.22,7.59,29.14,34.97,39.77,33.64.74-.09,7.16-2.53,7.84-2.92,13.06-7.38,33.66-32.72,46.51-38.41,23.04-10.19,38.5,36.65,23.01,50.19-3.01,2.63-7.35,3.59-10.36,6.2-20.47,4.93-45.43,18.51-67.1,11.57-13.05-4.18-40.27-36.06-51.21-47.54-6.51-6.83-12.29-14.5-19.42-20.76.97-.99,2.78-2.64,3.53-3.48,9.18,10.03,18.84,19.66,28.13,29.58,8.79,9.39,26.97,32.52,37.59,36.86,16.84,6.89,66.93-3.91,72.11-23.74l-.92,6.13c8.94-4.99-2.85-42.9-10.65-42.42-4.15.26-39.33,32.99-47.32,37.86-5.56,3.39-9.75,5.92-16.62,4.61-15.78-2.99-43.88-44.08-58.39-53.85.21-.28,2.22-3.2,3.27-4.83Z"/>
          <path class="cls-10" d="M412.63,244.05c1.28-.61,6.92,13.85,5.57,14.33l-5.57-14.33Z"/>
        </g>
        <g>
          <path class="cls-4" d="M303.5,257.43c27.13,26.7,29.98,32.59,63.33,8.77,9.66-3.98,18.45-11.26,25.81-18.65-2.09.51-4.47,2.42-6.3,3.67l-5.06.98c3.78-1.72,12.09-11.06,15.18-12.04,9.45-2.98,15.59,24.82,13.61,32.39-5.17,19.83-55.26,30.63-72.11,23.74-10.62-4.34-28.8-27.47-37.59-36.86l3.11-2Z"/>
          <g>
            <path class="cls-11" d="M397.3,258.92c.64-.21,1.37-.21,2.03-.39,1.87.54-25.26,19.05-27.37,19.65-1.12.32-1.5,1.21-2.83-.15,8.02-3.03,21.2-16.84,28.18-19.1Z"/>
            <path class="cls-11" d="M399.14,264.87c.92-.26,2.47-.91,2.56.56-7.63,4-17.05,13.49-24.39,16.97-1.27.6-2.59,1.66-3.78.38,5.76-3.09,20.53-16.5,25.61-17.91Z"/>
            <path class="cls-13" d="M394.77,253.11c1.13-.34,2.3-.5,1.61,1.09-4.41,2.62-8.04,6.44-12.2,9.36-.93.65-13.96,10.04-14.34,7.32,6.34-2.59,19.67-16.19,24.93-17.78Z"/>
            <path class="cls-11" d="M403.56,269.62c.94-.15,1.21.18,1.88.69-6.67,4.01-15.15,11.92-21.95,15.1-1.21.56-1.7,1.69-3.1.25,4.25-2.63,19.47-15.43,23.17-16.03Z"/>
            <path class="cls-11" d="M366.83,266.21c6.6-4.71,12.79-10.36,19.52-14.98,1.82-1.25,4.21-3.15,6.3-3.67-7.36,7.39-16.16,14.66-25.81,18.65Z"/>
          </g>
        </g>
      </g>
      <g>
        <path class="cls-5" d="M146.97,221.73c-14.56,12.82-42.45,57.07-62.68,56.55-10.98-.29-21.72-9.15-30.66-14.83l2.49-.29-25.23-18.11,8.99,4.62c-8.67-5.38-15.01-18.64-22.84-5.17-3.93,6.75-6.98,21.02-3.98,28.27l.06,3.84c-7.83-5.51,1.87-40.64,9.28-41.33,3.22-.3,8.8,4.19,11.54,6.09,11.22,7.81,37.59,34.21,50.01,34.76,6.21.28,15.13-6.99,19.6-11.05,14.3-12.96,26.82-31.6,40.93-45.16.14.14.33-.57,2.49,1.81Z"/>
        <g>
          <path class="cls-11" d="M144.96,219.38c-14.11,13.56-26.63,32.2-40.93,45.16-4.48,4.06-13.39,11.32-19.6,11.05-12.42-.55-38.79-26.95-50.01-34.76-2.74-1.91-8.32-6.39-11.54-6.09-7.41.7-17.11,35.82-9.28,41.33l-.06-3.84c7.98,19.31,67.71,33.32,82.94,12.67l53.91-60.44c1.13,1.43,3.09,1.75,2.15,3.84-6.3,6.6-11.92,14-18.06,20.71-10.7,11.69-25.73,31.41-36.75,40.97-4.28,3.71-9.53,6.09-14.63,8.38-22.94,6.87-47.08-7.06-67.85-11.22-29.08-7.29-12.38-68.47,14.97-54.68,13.7,6.91,30.87,27.6,45.04,35.33,1.54.84,7.09,3.37,8.48,3.49,10.39.92,31.78-26.2,38.74-34.02,6.36-7.15,13.14-14.03,19.53-21.16,3.89.9,2.75,3.09,2.94,3.28Z"/>
          <path class="cls-10" d="M9.29,242.87l-5.3,15.16c-.93-1.92,4.22-15.88,5.3-15.16Z"/>
        </g>
        <g>
          <path class="cls-3" d="M149.91,225.01l-53.91,60.44c-15.23,20.64-74.96,6.63-82.94-12.67-3-7.25.05-21.51,3.98-28.27,7.83-13.47,14.18-.21,22.84,5.17l-8.99-4.62c-1.45.16-.8.89-.28,1.7,2.61,4.02,18.18,13.63,23.03,16.7,8.94,5.67,19.68,14.54,30.66,14.83,20.23.53,48.12-43.72,62.68-56.55,1.15,1.27,1.74,1.75,2.94,3.28Z"/>
          <g>
            <path class="cls-11" d="M23.67,257.1l30.72,18.67c-.28,2.38-7.23-1.83-8.31-2.42-7.26-3.94-16.01-10.87-22.4-16.25Z"/>
            <path class="cls-11" d="M22.09,262.41l27.32,18.11c-.15,1.99-12.87-6.2-13.86-6.82-4.04-2.56-11.68-7.25-13.47-11.29Z"/>
            <path class="cls-11" d="M26.71,251.33c8.77,5.57,18.34,10.74,25.97,17.89-4.9-1.5-9.79-5.04-14.03-7.9-3.82-2.57-9.58-6.01-11.94-9.99Z"/>
            <path class="cls-11" d="M19.05,268.18l23.59,15.4c-.91,1.09-2.04.28-3.11-.17-6.41-2.66-14.63-10.91-21.38-13.99l.9-1.24Z"/>
            <path class="cls-11" d="M53.64,263.45c-4.85-3.08-20.42-12.68-23.03-16.7-.52-.8-1.17-1.54.28-1.7l25.23,18.11-2.49.29Z"/>
          </g>
        </g>
      </g>
    </g>
    <g>
      <g>
        <g>
          <path class="cls-7" d="M133.82,91.66c-.05.08-.22,1-.68,1.82-2.44-1.19-18.33-10.45-18.83-11.44-.57-1.12.62-3.04,1.22-3.96,5.23,5.15,14.78,7.78,18.29,13.57Z"/>
          <g>
            <path class="cls-11" d="M100.64,55.41c2.74,1.8,15.88,9.22,16.72,10.13,2.11,2.28,2.16,5.56,2.86,6.26,4.48,4.46,13.63,7.78,18.49,12.35-.66.89-1.38,3.38-2.33,4.84-2.49-2.8-18.18-13.78-20.48-12.57-.43.22-.32,1.61-.37,1.68-.6.92-1.78,2.83-1.22,3.96.5.98,16.38,10.24,18.83,11.44-.7,1.24-2.17,3.33-2.61,4.22-2.82-.87-17.39-12.02-18.66-11.89-1.64.16-2.5,2.51-4.09,2.62-7.15.51-13.05-6.63-18.71-10.36-18.09-11.92-35.88-24.63-54.27-36.08-6.4-3.99-17.65-4.08-14.71-14.83.4-1.45,7.48-11.51,8.74-12.31,8.97-5.62,11.05,2.04,16.57,5.66,18.18,11.93,37.09,22.93,55.24,34.88Z"/>
            <path class="cls-11" d="M26.94,24.8c1.74-1.2,1.84-.36,3.22.42,20.07,11.31,48.42,29.3,67.11,42.69,1.52,1.09,11.58,8.99,11.97,9.66.68,1.16-.22,3.13-.31,4.3-.25.25-.08,2.56-2.87,2.82-2.31.22-11.17-8.1-13.96-9.88-18.87-12.03-38.25-26.15-57.15-37.41-4.48-2.67-11.24-1.35-11.4-8.4-.03-1.5,2.84-3.31,3.38-4.19Z"/>
            <path class="cls-8" d="M30.8,20.01l78.71,49.87,2.65-.83c3.6,3.03-.38,9.96-3.22,12.81.08-1.17.98-3.13.31-4.3-.39-.66-10.45-8.57-11.97-9.66-18.7-13.39-47.05-31.38-67.11-42.69-1.38-.78-1.47-1.62-3.22-.42,1.63-2.67,1.21-2.62,3.86-4.79Z"/>
            <path class="cls-5" d="M112.16,69.05l-2.65.83L30.8,20.01c6.68-5.45,6.05.3,11.7,4.11,22.89,15.42,47.05,29.05,69.65,44.93Z"/>
            <path class="cls-5" d="M136.38,88.98c-.63.98-2.33,2.29-2.56,2.68-3.51-5.79-13.06-8.42-18.29-13.57.05-.07-.06-1.46.37-1.68,2.3-1.21,18,9.78,20.48,12.57Z"/>
          </g>
        </g>
        <g>
          <path class="cls-11" d="M336.36,69.44c-4.08,3.25-13.45,12.88-17.92,12.67-1.95-.09-3.12-2.13-4.32-2.24-2.04-.19-14.83,12.35-18.15,13.32-1.61-2.73-1.32-3.95-1.46-4.15,1.9-2.63,16.46-11.82,17.06-13.33.15-.39-1.15-1.9-1.38-2.3-.5-.89-1.33-1.57-1.27-2.63,1.57-.03.6.78,2.04,1.44.43.2.72-1.33,1.1-1.07.88.59,2.02,3.01,3.31,4.07,7.13,5.93,7.77-1.07,13.68-5.77,19.29-15.35,38.64-31.07,58.33-45.87,1.72-1.3,5.99-1.87,6.78-2.72,4.46-4.79.92-7.97-2.54-11.46-.66-.66-1.46-1.72-2.14-2.21-8.21-5.82-6.48,0-11.7,4.28-21.56,17.7-44.7,33.64-66.14,51.52-7.01.08-.85,4.38-4.03,7.33-3.47.68-13.78,11.48-17.82,13.43-1.09-1.35-1.87-3.22-2.34-3.73,4.15-4.72,12.22-8.5,16.18-12.91.98-1.09,1.37-5.11,3.38-7.56.9-1.1,12.03-8.44,14.62-10.54,17.03-13.81,34.88-26.76,52.05-40.42,5.39-4.29,7.02-11.66,15.99-7.15,2.89,1.45,11.48,12.23,10.85,15.82-1.05,5.98-12.32,10.38-17.4,14.31-15.86,12.26-31.12,25.41-46.79,37.89Z"/>
          <path class="cls-11" d="M315.39,75.21l-.05-4.02c24.7-21.42,51.79-40.08,76.3-61.8,3.47,3.48,7,6.66,2.54,11.46-.79.85-5.06,1.43-6.78,2.72-19.69,14.81-39.04,30.52-58.33,45.87-5.91,4.7-6.55,11.7-13.68,5.77Z"/>
          <path class="cls-8" d="M391.64,9.38c-24.51,21.73-51.6,40.38-76.3,61.8l.05,4.02c-1.28-1.07-2.42-3.48-3.31-4.07-.38-.26-.68,1.27-1.1,1.07-1.44-.67-.48-1.48-2.04-1.44-.36,0-1.05-.5-1.3-.45,3.17-2.95-2.99-7.25,4.03-7.33.84,0-.22,2.46,1.61,1.66l70.02-56.35,6.22-1.1c.69.49,1.48,1.54,2.14,2.21Z"/>
          <path class="cls-5" d="M389.5,7.17l-6.22,1.1-70.02,56.35c-1.82.8-.77-1.67-1.61-1.66,21.44-17.88,44.58-33.82,66.14-51.52,5.22-4.29,3.49-10.1,11.7-4.28Z"/>
          <path class="cls-7" d="M294.52,89.03c-.1-.16-1.25-.34-2.79-2.43l18.47-13.2c.23.41,1.53,1.92,1.38,2.3-.59,1.51-15.16,10.7-17.06,13.33Z"/>
          <path class="cls-5" d="M308.93,70.76c-.06,1.05.76,1.74,1.27,2.63l-18.47,13.2c-.71-.97-1.59-2.45-1.91-2.86,4.04-1.96,14.35-12.75,17.82-13.43.25-.05.93.46,1.3.45Z"/>
        </g>
      </g>
      <g>
        <path class="cls-11" d="M264.34,61.49c.61.33,1.45.39,2.92,1.3.45.28,0,0,3.27,2.02,2.28,1.41,2.76,1.91,2.91,2.02.2.15.86.75,3.28,2.79,47.34,39.97,52.1,107.44,8.94,152.67-1.34,1.41-3.87,3.89-4.13,4.13-.49.44-.96,1.02-1.38,1.38-.9.77-2.47,2.01-3.44,2.75-.9.69-2.98,1.96-4.13,2.75-34.73,23.93-81.56,25.06-115.87,0l-1.2-.68c-3.27-2.07-1.62-.98-3.27-2.07s-2.1-1.69-3.44-2.75c-2.52-2-2.55-2.35-2.71-2.46-.22-.15.16.11-1.69-1.69l-1.1-1c-43.66-42.85-39.02-114.92,8.25-153.01.77-.62,2.98-1.92,4.13-2.75.76-.56,1.7-1.51,1.78-1.57.37-.26,0,0,2.75-1.67,1.49-.9,3.43-2.41,4.41-2.95,32.87-18.15,65.22-16.92,98,0,.76.39,1.28.57,1.72.81Z"/>
        <path class="cls-5" d="M206.92,55.18c123.57-8.1,135.02,179.24,16.5,188.43-128.78,9.99-135.39-180.64-16.5-188.43Z"/>
        <g>
          <path class="cls-9" d="M221.7,239.48c-4.49,2.53-11,3.07-15.82.69l3.09-1.38,12.72.69Z"/>
          <g>
            <path class="cls-11" d="M174.6,121.89c9.97-.38,19.5,7.38,22.35,16.85-5.56-1.09-10.42-5.12-16.16-5.85-9.62-1.21-18.61,1.59-27.51,4.81,3.52-7.48,12.75-15.49,21.32-15.82Z"/>
            <path class="cls-11" d="M251.62,121.89c9.93-.41,18.83,6.73,23.73,14.79-14.71-3.61-30.21-7.97-42.98,3.09.97-8.9,10.22-17.51,19.26-17.88Z"/>
            <path class="cls-10" d="M229.95,233.98c6.31-3.27,16.07-4.25,22.01-7.56,1.14-.63,25.21-19.61,17.19-5.16-4.06,7.33-12.59,5.77-15.47,7.22-.71.35-3.12,4.45-4.81,5.5-3.24,2-18.86,6.81-18.91,0Z"/>
            <path class="cls-8" d="M195.91,212.66c16.06-2.84,24.1,16.25,4.13,13.75-10.07-1.26-14.59-11.91-4.13-13.75Z"/>
            <path class="cls-10" d="M176.32,226.41c6.59,3.67,15.55,4.12,22.01,8.25-.72,4.63-11.63,2.48-14.79,1.38-4.71-1.65-6.82-6.53-8.94-7.56-3.09-1.51-12.49-1.09-15.47-7.91-5.59-12.79,16.12,5.25,17.19,5.85Z"/>
            <path class="cls-10" d="M168.06,204.41c3.04.47-.87.84-.69,1.03,4.85,4.93,16.15,5.68,19.26,12.03-1.59,14.79-32.29-7.4-18.57-13.07Z"/>
            <path class="cls-10" d="M241.65,218.16c.64-5.41,3.9-3.34,6.53-4.81,4.7-2.64,8.94-5.68,14.1-7.56,7.05,9.07-18.21,23.31-20.63,12.38Z"/>
            <path class="cls-15" d="M224.11,101.94c5.87-.57,11.1,3.52,13.41,8.6-.18,2.36-6.82-1.7-7.22-1.72-.23-.01-.65,1.99-1.38,2.06-3.48.34-3.88-2.08-4.13-2.06-.28.01-1.1,1.36-1.38,1.38-16.35.72-2.51,13.24,7.56,9.63,2.21-.79,3.25-3.43,5.5-4.13-13.04,21.96-33.64-11.68-12.38-13.75Z"/>
            <path class="cls-12" d="M152.59,90.25c12.63-2.33,4.78,18.6-2.75,21.32-1.25-2.15,1.95-2.48,2.41-4.47,1.57-6.83-4.62-9.46-9.28-4.47-2.46-1.29,6.47-11.79,9.63-12.38Z"/>
            <path class="cls-10" d="M238.89,218.16c.4,8.47-25.69,13.14-22.01,1.38l2.41.69c5.89-1.46,14.96-5.59,19.6-2.06Z"/>
            <path class="cls-10" d="M225.14,233.29c1.78,4.06-.83,4.72-3.44,6.19l-12.72-.69-3.09,1.38c-3.35-1.65-4.61-2.94-2.75-6.88,6.43-1.41,15.93-1.14,22.01,0Z"/>
            <path class="cls-12" d="M285.66,184.46c-1.23,10.16-16.58,16.44-16.5,4.81,4.03-3.71,11.4-8.2,16.5-4.81Z"/>
            <path class="cls-15" d="M208.64,106.76c7.67,11.37-9.13,21.52-17.19,12.03,7.17,3.1,18.26,2.23,17.88-7.56-5.77-1.53-17.41-1.95-20.29,3.09-1.58-2.2-.04-5.12,1.03-6.88l5.16-1.38,13.41.69Z"/>
            <path class="cls-12" d="M144.68,132.89c-1.56,4.9-3.74,8.48-9.28,9.63,4.76-2.46,9.6-11.33,2.06-13.07-10.94-2.52-6.43,7.83-8.94,13.75-2.92-6.94-1.15-11.23,3.09-17.88,6.47-1.47,7.65-1.63,11.35,3.44.18.25,1.61-2.18,1.72,4.13Z"/>
            <path class="cls-15" d="M279.47,93.69c2.76,2.17,4.31,5.52,6.88,7.91-.32,2.39-7.31-3.88-10.32.69-2.39,3.63,3.05,7.86,1.72,8.6-3.42-.88-5.66-3.99-7.22-6.88-1.62-6.16,2.93-10.48,8.94-10.32Z"/>
            <path class="cls-12" d="M256.43,184.46c6.01-1.27,10,.98,10.66,7.22-5.52.94-10.2.35-15.47,2.41l1.03-2.41c-.18-.31-3.43,1.41-3.44-1.38-.03-.95,5.98-5.58,7.22-5.85Z"/>
            <path class="cls-11" d="M262.28,205.78c-5.16,1.89-9.39,4.92-14.1,7.56-2.63,1.48-5.89-.6-6.53,4.81-2.15-9.71,15.4-19.11,20.63-12.38Z"/>
            <path class="cls-15" d="M296.66,126.01c.74.87,2.98,3.45,3.44,4.13-.94,1.21-.59,2.12-.69,3.44-3.13-4.14-10.01-6.82-11.69-.34-.73,2.79,1.43,5.19.34,7.22-2.52-1.22-3.48-3.82-4.47-6.19-.34-6.42,7.5-12.47,13.07-8.25Z"/>
            <path class="cls-15" d="M284.97,166.58l3.09-8.25c2.23-.68,4.78-3.54,6.88-4.13,1.57-.44,5.03,1.35,5.16-.69.8,2.55,2.6,6.22.34,8.25-5.53-6.96-15.8,2.42-11.69,10.32-2.56-.74-3.23-3.29-3.78-5.5Z"/>
            <path class="cls-15" d="M186.63,80.62c.21.31,2.21,2.12,1.03,2.75-6.33,1.56-13.33-2.25-18.22,3.09,1.62,11.16,17.28,6.47,18.91-2.41.07,16.93-29.22,10.93-17.54-2.75l15.82-.69Z"/>
            <path class="cls-12" d="M142.62,167.96c-.72,1.53-1.04,3.11-3.09,3.44,4.29-9.05-5.26-16.83-12.38-10.32-.55-.43-.46-4.53-.34-5.5,3.35-5.53,14.85,1.61,15.82,5.16.73,2.69-2.19,4.45,0,7.22Z"/>
            <path class="cls-8" d="M299.07,165.9c2.11-.9,3.09,4.82,3.09,5.85,0,.24-1.96.62-2.06,1.38-.04.27,1.44,4.09.69,5.5-.24.44-6.27-.37-9.28,3.09l-.69,3.44c-2.99-7.42,3.74-11.04,7.22-15.47.12-.15.03-3.35,1.03-3.78Z"/>
            <path class="cls-6" d="M300.1,153.52c-.13,2.04-3.58.24-5.16.69-2.09.59-4.65,3.44-6.88,4.13l-3.09,8.25c-1.21-4.83-.81-7.24.69-11.69l10.32-6.88c3.05,1.17,3.2,2.56,4.13,5.5Z"/>
            <path class="cls-14" d="M265.71,163.15c1.46-2.58-3.28-5.9-5.5-6.19,7.84-4.82,16.21-1.39,15.47,8.25-4.77-5.95-3.77,1.13-9.97-2.06Z"/>
            <path class="cls-11" d="M186.63,217.47c-3.1-6.35-14.41-7.11-19.26-12.03-.18-.19,3.72-.56.69-1.03,7.35-3.03,19.45,4.84,18.57,13.07Z"/>
            <path class="cls-6" d="M143.99,158.33c.5,3.4.12,6.46-1.38,9.63-2.19-2.77.73-4.53,0-7.22-.97-3.55-12.46-10.68-15.82-5.16.3-2.54,2.99-7.25,5.5-8.25,1.31,2.75,5.53,3.05,7.91,5.5,1.74,1.79,1.66,4.72,3.78,5.5Z"/>
            <path class="cls-11" d="M238.89,218.16c-4.63-3.52-13.71.6-19.6,2.06l-2.41-.69c2.61-8.32,21.65-8.86,22.01-1.38Z"/>
            <path class="cls-8" d="M129.21,165.21c1.49,7.48,10.57,9.7,8.25,18.57,0-6.19-9.6-5.33-9.97-5.85-.4-.56-.84-13.1,1.72-12.72Z"/>
            <path class="cls-9" d="M198.32,234.67c-6.46-4.13-15.41-4.58-22.01-8.25,5.53-4.3,23.14.99,22.01,8.25Z"/>
            <path class="cls-12" d="M159.12,187.22c.31,2.21.07,4.56-1.72,6.19,1.21-4.35-6.75-5.31-10.32-5.5-2.7,1.77,1.62,3.07.69,5.5-2.03-2.63-3.74-4.9-4.47-8.25,1.3-7,11.75.98,15.82,2.06Z"/>
            <path class="cls-14" d="M158.78,153.52c2.25-.33,12.56,3.45,12.03,5.85-4.28,2.4-11.11-2.23-17.54,1.72-2.93-.67,3.1-7.21,5.5-7.56Z"/>
            <path class="cls-15" d="M219.3,57.93c16.2-2.99,18.81,16.86,0,11.69-3.04-2.99,10.55,1.63,12.03-3.78,1.77-6.47-16.34-5.95-16.5-2.75-.23,1.08,6.29,6.68,1.72,4.47-5.13-2.48-2.79-8.61,2.75-9.63Z"/>
            <path class="cls-9" d="M251.96,226.41c-5.93,3.31-15.7,4.29-22.01,7.56-.05-6.45,16.99-12.06,22.01-7.56Z"/>
            <path class="cls-6" d="M284.28,178.96c1.23,1.63,1.62,3.51,1.38,5.5-5.1-3.38-12.47,1.11-16.5,4.81.02-2.81,1.68-5.47,3.44-7.56,4.02-1.56,7.07-4.95,11.69-2.75Z"/>
            <path class="cls-6" d="M146.06,125.32c.2,3.14-.47,4.71-1.38,7.56-.11-6.31-1.54-3.87-1.72-4.13-3.69-5.07-4.88-4.91-11.35-3.44,1.14-1.78,1.57-3.42,3.44-4.81,4.57-1.58,8.92.04,11,4.81Z"/>
            <path class="cls-6" d="M163.25,204.41c.39,1.07,1.86,5.21-.34,5.5-3.95-3.92-13.8-3.17-13.41-8.94h5.85l7.91,3.44Z"/>
            <path class="cls-15" d="M202.79,57.24c3.36-.18,9.64,3.47,8.6,7.22-1.45,5.2-16.3,8.88-16.85,1.03,1.42,5.09,14.99,2.38,15.47-1.03.71-4.99-11.33-3.74-14.79-2.41.05-1.86,6.75-4.77,7.56-4.81Z"/>
            <path class="cls-6" d="M292.53,120.51c3.34,2.42,2.69,3.8,4.13,5.5-5.56-4.22-13.41,1.83-13.07,8.25-.98-2.34-2.1-4.99-2.06-7.56,2.3-.48,3.3-4.77,5.16-5.5,1.32-.52,2.6,2.41,2.75-1.38l3.09.69Z"/>
            <path class="cls-6" d="M151.56,178.28c2.98,1.29,7.14,5.85,7.56,8.94-4.07-1.09-14.52-9.07-15.82-2.06-.53-2.4-.92-4,.69-6.19l7.56-.69Z"/>
            <path class="cls-10" d="M147.78,206.47c1.3.05,10.91,9.62,8.94,12.38-2.96,4.15-14.99-12.63-8.94-12.38Z"/>
            <path class="cls-12" d="M173.91,102.63c3.83-.76,9.25.42,10.66,4.47-3.04-1.9-16.57,4.21-16.5,0,1.28-1.35,4.11-4.13,5.85-4.47Z"/>
            <path class="cls-14" d="M165.66,184.46c4.04-1.25,11.2.67,12.03,5.85l-14.79-.34c-2.35-1.03,2.21-5.33,2.75-5.5Z"/>
            <path class="cls-12" d="M220.67,76.5c5.11-.9,13.4,1.36,14.1,7.22-7.12-4.29-11.94-5.19-19.6-1.72-2.66-1.24,4.37-5.3,5.5-5.5Z"/>
            <path class="cls-1" d="M279.47,93.69c-6.01-.16-10.56,4.16-8.94,10.32-5.66-10.47-2.13-19.04,8.94-10.32Z"/>
            <path class="cls-12" d="M242.68,77.87c4.83-1.01,13.49.78,14.79,6.53-.95,1.47-4.86-2.21-5.85-2.41-4.88-.99-7.69.38-12.38-.69-1.29-1.4,3.19-3.39,3.44-3.44Z"/>
            <path class="cls-9" d="M225.14,233.29c-6.08-1.14-15.58-1.41-22.01,0,2.83-5.98,19.28-6.21,22.01,0Z"/>
            <path class="cls-10" d="M279.81,207.85c5.88-.26-3.17,13.06-7.56,11-2.12-2.89,6.06-10.94,7.56-11Z"/>
            <path class="cls-6" d="M279.47,200.97c.27,4.96-2.21,1.92-2.41,2.06-1.91,1.39-1.13,3.4-5.5,2.06l-6.19,5.5c-.56-1.59-1.22-3.06-1.03-4.81,4.52-1.17,10.56-7.84,15.13-4.81Z"/>
            <path class="cls-12" d="M246.8,102.63c4.16-.8,10.32.79,12.03,5.16-5.88-1.5-11.26-1.91-16.85.34-1.61-2.05,3.62-5.27,4.81-5.5Z"/>
            <path class="cls-12" d="M208.64,106.76l-13.41-.69-5.16,1.38c3.9-6.37,14.41-6.85,18.57-.69Z"/>
            <path class="cls-10" d="M291.16,194.09c.03,4.15-5.31,10.78-9.97,10.32-.72-.4-.14-1.52-.34-2.06,1.54-3.28,6.18-7.84,10.32-8.25Z"/>
            <path class="cls-10" d="M147.43,202.34c-.21.85.04,1.42-1.03,2.06-3.9-.36-9.26-6.49-9.28-10.32,4.73.79,7.52,4.62,10.32,8.25Z"/>
            <path class="cls-9" d="M279.47,200.97c-4.57-3.02-10.61,3.65-15.13,4.81.73-6.71,14.76-11.69,15.13-4.81Z"/>
            <path class="cls-11" d="M147.43,202.34c-2.79-3.63-5.58-7.46-10.32-8.25-.07-9.33,11.78,2.2,10.32,8.25Z"/>
            <path class="cls-9" d="M291.16,194.09c-4.13.41-8.77,4.98-10.32,8.25-2.03-5.26,10.24-17.77,10.32-8.25Z"/>
            <path class="cls-12" d="M299.41,133.58c.1-1.31-.26-2.23.69-3.44.07.1,1.14-.23,2.06,1.03,3.81,5.25-1.97,8.83-2.41,13.41-1.35-3.66-.63-7.29-.34-11Z"/>
            <path class="cls-12" d="M186.63,80.62l-15.82.69c3.44-4.02,12.67-5.42,15.82-.69Z"/>
            <path class="cls-9" d="M163.25,204.41l-7.91-3.44h-5.85c.48-7.04,11.62-2.43,13.75,3.44Z"/>
            <path class="cls-12" d="M255.06,72.37l12.03,11.35c-1.66,2.56-14.74-7.85-12.03-11.35Z"/>
            <path class="cls-9" d="M292.53,120.51l-3.09-.69c-.16,3.79-1.43.86-2.75,1.38-1.86.73-2.85,5.03-5.16,5.5.12-8.3,3.96-11.28,11-6.19Z"/>
            <path class="cls-12" d="M207.95,79.94c.31.33,2.34,1.1,1.72,2.06-6.58-2.51-11.58-2.61-17.88.69-1.26-1.91.38-2,1.03-2.75,5.37-1.96,9.78-2.97,15.13,0Z"/>
            <path class="cls-11" d="M143.99,158.33c-2.13-.78-2.05-3.71-3.78-5.5-2.37-2.45-6.59-2.76-7.91-5.5,6.23-2.49,10.95,5.95,11.69,11Z"/>
            <path class="cls-11" d="M295.97,148.02l-10.32,6.88c1.62-4.83,4.56-9.09,10.32-6.88Z"/>
            <path class="cls-15" d="M171.16,74.44c3.03,1.43-10.12,12.64-13.41,9.97l13.41-9.97Z"/>
            <path class="cls-9" d="M146.06,125.32c-2.08-4.78-6.43-6.4-11-4.81,6.48-4.83,10.47-3.57,11,4.81Z"/>
            <path class="cls-12" d="M235.8,62.74c3.35,5.13,7.08,6.19,12.72,7.91-4.05,1.41-14.68-3.23-12.72-7.91Z"/>
            <path class="cls-12" d="M190.41,62.74c2.22,5.27-8.69,9.54-12.72,7.91,4.64-1.94,11.16-1.82,12.72-7.91Z"/>
            <path class="cls-12" d="M207.95,79.94c-5.35-2.97-9.76-1.96-15.13,0,4.08-4.7,10.87-4.54,15.13,0Z"/>
            <path class="cls-12" d="M287.38,96.44c.51-.3,5.66,9.11,4.13,9.63-1.12-1.13-5.94-8.58-4.13-9.63Z"/>
            <path class="cls-9" d="M284.28,178.96c-4.62-2.2-7.67,1.19-11.69,2.75,2.63-3.13,8.4-7.13,11.69-2.75Z"/>
            <path class="cls-15" d="M140.9,96.44l-4.13,8.25c-1.1-2.91,2.54-6.13,4.13-8.25Z"/>
            <path class="cls-8" d="M151.56,178.28l-7.56.69c2.46-3.34,4.46-2.04,7.56-.69Z"/>
            <path class="cls-15" d="M131.27,113.63c.65,1.69-.15,4.88-1.38,6.19-.87-1.86,0-4.69,1.38-6.19Z"/>
            <g>
              <path class="cls-11" d="M260.21,156.96c2.22.29,6.96,3.61,5.5,6.19-4.57-2.35-5.46-5.94-13.07-3.78,2.15-1.96,4.71-2.78,7.56-2.41Z"/>
              <g>
                <path class="cls-11" d="M174.6,159.02c1.49-.22,3.27.15,4.81,0l1.03,1.03-4.81,3.44c19.73,8.41,42.58,9.45,63.61,5.16,3.32-.68,25.58-10.1,25.1-3.78-9.97,11.58-14.85,28-27.16,37.48-27.17,20.91-49.36,1.02-62.92-23.04-2.17-3.85-4.35-13.91-8.25-13.07,1.18-2.96,5.47-6.76,8.6-7.22Z"/>
                <path class="cls-5" d="M175.28,167.27c25.5,10.53,54.86,8.35,80.8.34-19.95,20.06-62.73,23.23-80.8-.34Z"/>
                <path class="cls-2" d="M209.67,191.34c7.87-.78,19.69-.16,25.1,6.53-12.07,9.35-28.49,9.19-40.57,0,3.96-3.78,10.07-6,15.47-6.53Z"/>
              </g>
            </g>
          </g>
        </g>
      </g>
    </g>
  </g>
</svg>